<svg width="72" height="72" viewBox="0 0 72 72" fill="none" xmlns="http://www.w3.org/2000/svg">
<path d="M0 36C0 16.1178 16.1178 0 36 0C55.8823 0 72 16.1178 72 36C72 55.8823 55.8823 72 36 72C16.1178 72 0 55.8823 0 36Z" fill="#FEF6EE"/>
<path d="M30.1833 17.7637L12.6958 24.9775L30.1833 32.1912L47.6709 24.9775L30.1833 17.7637Z" fill="#DC4A1A"/>
<path d="M23.0854 20.707L19.7939 22.0344L37.2815 29.277L40.5443 27.9208L23.0854 20.707Z" fill="#F4AF7D"/>
<path d="M12.6958 24.9775V44.8587L30.1833 52.0725V32.1913L12.6958 24.9775Z" fill="#B73817"/>
<path d="M47.6709 24.9775V44.8587L30.1833 52.0725V32.1913L47.6709 24.9775Z" fill="#EF8448"/>
<path opacity="0.1" d="M47.6707 35.1341C47.1555 35.0186 46.6403 34.9609 46.0965 34.9609C41.8606 34.9609 38.426 38.4236 38.426 42.6941C38.426 44.6851 39.1702 46.503 40.4009 47.8592L47.6707 44.8582V35.1341Z" fill="#0C1E5B"/>
<path d="M37.2812 29.2771V37.6162L40.5441 36.26V27.9209L37.2812 29.2771Z" fill="#F4AF7D"/>
<path d="M49.304 54.2373C54.8268 54.2373 59.304 49.7602 59.304 44.2373C59.304 38.7145 54.8268 34.2373 49.304 34.2373C43.7811 34.2373 39.304 38.7145 39.304 44.2373C39.304 49.7602 43.7811 54.2373 49.304 54.2373Z" fill="#FF2735"/>
<path d="M55.5404 43.3441L54.2944 41.2774C54.2032 41.1273 54.075 41.0031 53.9221 40.9167C53.7692 40.8303 53.5967 40.7846 53.4211 40.7839H52.4429V40.6386C52.4429 40.4288 52.4015 40.2212 52.321 40.0274C52.2405 39.8337 52.1225 39.6578 51.9739 39.5099C51.6733 39.2104 51.2664 39.0422 50.8422 39.042H45.0188C44.7018 39.0399 44.3915 39.1325 44.1274 39.3078C43.8633 39.4831 43.6576 39.7332 43.5365 40.0261C43.4564 40.2203 43.4159 40.4286 43.4175 40.6386V45.8641C43.4179 46.1095 43.5071 46.3465 43.6687 46.5312C43.8303 46.7159 44.0534 46.8357 44.2966 46.8686C44.2939 46.9211 44.2939 46.9734 44.2966 47.0255C44.2945 47.2729 44.3424 47.5182 44.4375 47.7467C44.5325 47.9751 44.6727 48.182 44.8496 48.3549C45.0232 48.5356 45.231 48.68 45.461 48.7797C45.6909 48.8793 45.9384 48.9322 46.1889 48.9354C46.6891 48.9308 47.1675 48.7306 47.5219 48.3777C47.8759 48.0253 48.077 47.5478 48.0819 47.0483C48.0849 47.0001 48.0849 46.9518 48.0819 46.9036H51.2954C51.2924 46.9518 51.2924 47.0001 51.2954 47.0483C51.2933 47.2958 51.3412 47.5412 51.4362 47.7697C51.5312 47.9983 51.6714 48.2053 51.8484 48.3783C52.0222 48.5591 52.2302 48.7036 52.4604 48.8032C52.6905 48.9029 52.9382 48.9557 53.1889 48.9587C53.6891 48.9542 54.1675 48.754 54.5219 48.401C54.8757 48.0485 55.0766 47.571 55.0813 47.0716C55.0843 47.0232 55.0843 46.9747 55.0813 46.9264H55.5223C55.6373 46.9247 55.7473 46.8784 55.8288 46.7972C55.9103 46.716 55.9571 46.6062 55.9592 46.4912V44.8135C55.9592 44.2944 55.8139 43.7857 55.5404 43.3441ZM47.2022 47.0249C47.2024 47.1583 47.1756 47.2903 47.1236 47.4131C47.0716 47.5359 46.9954 47.6469 46.8994 47.7395C46.7054 47.9239 46.4479 48.0267 46.1802 48.0267C45.9125 48.0267 45.655 47.9239 45.4609 47.7395C45.3663 47.6451 45.2914 47.5329 45.2406 47.4093C45.1897 47.2858 45.1639 47.1533 45.1646 47.0197C45.1619 46.8817 45.1898 46.7448 45.2463 46.6189C45.3233 46.4364 45.4557 46.2824 45.6243 46.1774C45.7967 46.0634 45.9998 46.0048 46.2064 46.0094C46.4036 46.0094 46.5961 46.0677 46.7594 46.1774C46.9269 46.2841 47.0587 46.4375 47.1386 46.6189C47.1958 46.7444 47.2261 46.8814 47.2255 47.0197L47.2022 47.0249ZM49.0945 44.1223H46.1837C46.0296 44.1221 45.8818 44.061 45.7726 43.9522C45.6634 43.8435 45.6017 43.696 45.6009 43.5419C45.6008 43.4654 45.6157 43.3897 45.645 43.3191C45.6742 43.2484 45.7171 43.1843 45.7712 43.1303C45.8253 43.0763 45.8895 43.0335 45.9602 43.0044C46.0309 42.9754 46.1067 42.9606 46.1831 42.9609H49.0945C49.2486 42.9612 49.3964 43.0224 49.5054 43.1313C49.6145 43.2402 49.6761 43.3878 49.6767 43.5419C49.6768 43.6183 49.6618 43.6939 49.6325 43.7645C49.6032 43.835 49.5603 43.8991 49.5062 43.9531C49.4521 44.007 49.3879 44.0497 49.3173 44.0788C49.2466 44.1078 49.1709 44.1226 49.0945 44.1223ZM49.0945 42.1249H46.1837C46.0296 42.1248 45.8818 42.0637 45.7726 41.9549C45.6634 41.8462 45.6017 41.6986 45.6009 41.5445C45.6009 41.4681 45.6159 41.3925 45.6451 41.3219C45.6744 41.2513 45.7173 41.1873 45.7714 41.1333C45.8255 41.0794 45.8897 41.0367 45.9604 41.0076C46.031 40.9786 46.1067 40.9638 46.1831 40.9641H49.0945C49.2485 40.9644 49.3962 41.0256 49.5052 41.1343C49.6143 41.2431 49.6759 41.3905 49.6767 41.5445C49.6768 41.6209 49.6618 41.6966 49.6325 41.7671C49.6032 41.8377 49.5603 41.9018 49.5062 41.9557C49.4521 42.0097 49.3879 42.0524 49.3173 42.0814C49.2466 42.1105 49.1709 42.1253 49.0945 42.1249ZM54.1894 47.0249C54.1895 47.1583 54.1626 47.2904 54.1105 47.4132C54.0584 47.5359 53.982 47.6469 53.886 47.7395C53.692 47.9238 53.4346 48.0265 53.1671 48.0265C52.8995 48.0265 52.6421 47.9238 52.4481 47.7395C52.3534 47.6452 52.2784 47.533 52.2274 47.4094C52.1765 47.2858 52.1505 47.1534 52.1512 47.0197C52.1487 46.8082 52.2164 46.6018 52.3437 46.4329C52.4872 46.2421 52.6931 46.1062 52.9259 46.0496H53.0717C53.0983 46.0433 53.1261 46.0433 53.1528 46.0496H53.2694C53.4462 46.07 53.6148 46.1359 53.7583 46.2415C53.9024 46.3471 54.0149 46.4894 54.0844 46.6539C54.1421 46.7794 54.1719 46.9164 54.1719 47.0541L54.1894 47.0249Z" fill="#FAFAFA"/>
<path d="M53.1657 46.0029C53.1388 45.9964 53.1108 45.9964 53.084 46.0029H53.1657Z" fill="#FAFAFA"/>
<path d="M18.3627 42.1753L16.4737 38.251L14.6992 40.5882L15.6723 41.0211V43.5603L17.2465 44.2817V41.7136L18.3627 42.1753Z" fill="#F5F5F5"/>
</svg>
