<svg width="24" height="24" viewBox="0 0 24 24" fill="none" xmlns="http://www.w3.org/2000/svg">
<path d="M6.895 4.49393C7.406 3.76493 8.395 3.44393 9.673 3.54793C11.437 3.69593 13.773 4.65793 16.023 6.28893C18.264 7.92893 19.909 9.87893 20.608 11.5269C21.119 12.7239 21.136 13.7829 20.625 14.5109L17.114 19.5059C16.602 20.2349 15.604 20.5559 14.335 20.4519C12.571 20.2959 10.227 19.3419 7.985 17.7019C5.735 16.0719 4.099 14.1199 3.392 12.4719C2.881 11.2759 2.864 10.2169 3.375 9.48993L6.895 4.49393ZM20.139 14.1459C20.549 13.5739 20.463 12.7239 20.063 11.7699C19.389 10.1999 17.813 8.35293 15.665 6.79193C13.525 5.23093 11.301 4.30193 9.622 4.16393C8.6 4.07693 7.79 4.26793 7.381 4.84893L7.363 4.88393C6.98 5.46393 7.065 6.28893 7.466 7.22593C8.139 8.80393 9.716 10.6509 11.855 12.2129C13.995 13.7729 16.219 14.7009 17.898 14.8399C18.904 14.9189 19.696 14.7359 20.113 14.1899L20.139 14.1459ZM14.668 8.20593C15.742 8.98593 16.534 9.91393 16.866 10.7039C17.062 11.1459 17.114 11.5359 16.918 11.8039C16.73 12.0739 16.347 12.1519 15.878 12.1089C15.034 12.0389 13.926 11.5709 12.852 10.7899C11.778 10.0089 10.986 9.08993 10.653 8.30093C10.466 7.85893 10.415 7.46893 10.603 7.19993C10.79 6.92993 11.173 6.85293 11.65 6.88693C12.486 6.96593 13.603 7.42493 14.668 8.20593Z" fill="#D6D6D6"/>
<path fill-rule="evenodd" clip-rule="evenodd" d="M20.608 11.5269C20.6667 11.6643 20.72 11.8036 20.768 11.9449C20.5783 11.8495 20.3724 11.7905 20.161 11.7709L20.059 11.7629C19.384 10.1949 17.809 8.35093 15.665 6.79293C14.995 6.30293 14.315 5.87493 13.647 5.51493C12.184 4.72593 10.774 4.25893 9.622 4.16393C8.599 4.07693 7.79 4.26793 7.38 4.84893L7.363 4.88393C6.98 5.46393 7.065 6.28893 7.466 7.22493C7.967 8.40093 8.971 9.72693 10.335 10.9719C10.801 11.3979 11.31 11.8149 11.855 12.2119C13.592 13.4799 15.386 14.3309 16.898 14.6799C16.285 15.5539 15.624 16.3279 14.758 16.5019C13.998 16.6669 13.248 16.3179 12.568 15.5149C12.354 15.2769 12.153 15.0049 11.954 14.7369C11.485 14.1019 11.028 13.4849 10.454 13.3549C9.633 13.1579 8.858 13.8879 8.079 14.6209L8.076 14.6239C7.472 15.1929 6.866 15.7619 6.235 15.9059C6.13096 15.9282 6.02581 15.9449 5.92 15.9559C4.732 14.7829 3.86 13.5609 3.392 12.4729C2.881 11.2759 2.864 10.2179 3.375 9.48993L6.895 4.49393C7.406 3.76493 8.395 3.44393 9.673 3.54793C11.437 3.69593 13.773 4.65793 16.023 6.28893C18.264 7.92893 19.909 9.87893 20.608 11.5269Z" fill="#D6D6D6"/>
<path d="M6.46 6.30695C6.49415 6.30586 6.52735 6.31826 6.55243 6.34147C6.57751 6.36467 6.59244 6.39682 6.594 6.43095L6.602 6.56295C6.60479 6.59697 6.59408 6.63073 6.57219 6.65692C6.55029 6.68312 6.51898 6.69965 6.485 6.70295C6.45083 6.70515 6.41717 6.69379 6.39133 6.67132C6.36549 6.64885 6.34956 6.6171 6.347 6.58295L6.339 6.44295C6.33736 6.40879 6.34924 6.37536 6.37208 6.34991C6.39492 6.32445 6.42586 6.30902 6.46 6.30695ZM6.487 6.71595C6.52092 6.71138 6.55527 6.72036 6.5826 6.74096C6.60993 6.76155 6.62804 6.79209 6.633 6.82595C6.785 7.85095 7.353 8.85595 8.09 9.78495C8.10078 9.79821 8.10884 9.81346 8.11372 9.82984C8.1186 9.84622 8.1202 9.86339 8.11844 9.88039C8.11668 9.89739 8.11158 9.91387 8.10344 9.92889C8.0953 9.94392 8.08427 9.95719 8.071 9.96795C8.05798 9.97872 8.04293 9.98677 8.02674 9.9916C8.01055 9.99644 7.99355 9.99797 7.97676 9.9961C7.95997 9.99424 7.94372 9.98901 7.92899 9.98074C7.91425 9.97247 7.90134 9.96132 7.891 9.94795C7.142 9.00395 6.542 7.95495 6.38 6.86395C6.3748 6.83017 6.38311 6.7957 6.40313 6.768C6.42316 6.7403 6.45329 6.7216 6.487 6.71595ZM10.267 12.196C10.2774 12.1829 10.2904 12.1721 10.3052 12.1644C10.3201 12.1566 10.3363 12.152 10.353 12.151C10.3867 12.1485 10.4201 12.1592 10.446 12.181L10.547 12.27L10.674 12.378C10.6934 12.3944 10.7077 12.4162 10.7149 12.4407C10.7222 12.4651 10.7221 12.4911 10.7148 12.5155C10.7075 12.54 10.6932 12.5617 10.6737 12.5781C10.6542 12.5945 10.6303 12.6049 10.605 12.608C10.5709 12.6107 10.5372 12.5999 10.511 12.578L10.381 12.468L10.279 12.378C10.2531 12.3554 10.2371 12.3234 10.2347 12.2891C10.2323 12.2548 10.2435 12.221 10.266 12.195M10.753 12.612C10.7686 12.592 10.7896 12.577 10.8136 12.5688C10.8376 12.5606 10.8635 12.5596 10.888 12.566C10.9047 12.5696 10.9202 12.5776 10.933 12.589C11.986 13.425 13.269 14.158 14.543 14.682C14.5588 14.6884 14.5733 14.698 14.5854 14.71C14.5976 14.7221 14.6072 14.7364 14.6138 14.7522C14.6204 14.768 14.6238 14.7849 14.6239 14.8021C14.6239 14.8192 14.6205 14.8361 14.614 14.852C14.6082 14.8677 14.5992 14.8821 14.5874 14.8942C14.5757 14.9062 14.5616 14.9157 14.546 14.922C14.5147 14.9351 14.4795 14.9354 14.448 14.923C13.154 14.391 11.85 13.646 10.776 12.794C10.7489 12.7728 10.7312 12.7418 10.7269 12.7077C10.7226 12.6736 10.732 12.6392 10.753 12.612ZM18.874 15.582C18.8798 15.6159 18.8719 15.6508 18.852 15.6789C18.8322 15.707 18.8019 15.7261 18.768 15.732L18.596 15.755C18.5622 15.7582 18.5285 15.7482 18.502 15.727C18.4755 15.7053 18.4586 15.674 18.455 15.64C18.4512 15.606 18.4609 15.5718 18.482 15.545C18.5033 15.5183 18.5341 15.5011 18.568 15.497C18.6213 15.4903 18.6747 15.4826 18.728 15.474C18.7533 15.4702 18.7791 15.474 18.8022 15.4849C18.8253 15.4957 18.8447 15.5131 18.858 15.535C18.866 15.549 18.8713 15.5646 18.874 15.582Z" fill="#D6D6D6"/>
</svg>
