<svg width="16" height="17" viewBox="0 0 16 17" fill="none" xmlns="http://www.w3.org/2000/svg">
<path fill-rule="evenodd" clip-rule="evenodd" d="M12.6023 4.66336V5.94114C14.0376 6.38915 15.0834 7.68847 15.0834 9.24036V13.3544C15.0834 15.2757 13.4906 16.8334 11.5269 16.8334H4.47402C2.50948 16.8334 0.916687 15.2757 0.916687 13.3544V9.24036C0.916687 7.68847 1.96331 6.38915 3.39776 5.94114V4.66336C3.40623 2.17901 5.46391 0.166687 7.98732 0.166687C10.5446 0.166687 12.6023 2.17901 12.6023 4.66336ZM8.00425 1.61589C9.72322 1.61589 11.1204 2.98228 11.1204 4.66336V5.76144H4.87963V4.6468C4.8881 2.974 6.28529 1.61589 8.00425 1.61589ZM8.74095 12.2125C8.74095 12.6182 8.41071 12.9412 7.99579 12.9412C7.58933 12.9412 7.25909 12.6182 7.25909 12.2125V10.374C7.25909 9.97655 7.58933 9.65359 7.99579 9.65359C8.41071 9.65359 8.74095 9.97655 8.74095 10.374V12.2125Z" fill="#A3A3A3"/>
</svg>
