<svg width="64" height="65" viewBox="0 0 64 65" fill="none" xmlns="http://www.w3.org/2000/svg">
<path d="M0.00130508 32.4999C-0.159551 14.8109 14.5702 0.293837 32.4941 0.502216C49.338 0.699017 64.1482 14.7067 63.9989 32.9282C63.861 49.7142 49.8091 65.03 31.0465 64.4859C14.3175 63.9997 0.00130508 50.5014 0.00130508 32.5115V32.4999ZM32.7354 3.68577C17.0405 2.95645 3.08052 16.3158 3.06903 32.5577C3.06903 47.6883 15.8686 60.8277 30.6673 61.3487C47.6605 61.9391 60.506 48.1398 60.8507 33.3565C61.2414 16.9178 47.8903 3.81313 32.7354 3.69736V3.68577Z" fill="#0F0F0F"/>
<path d="M51.4635 31.9905C51.4291 39.5152 48.5682 45.0488 42.8003 48.846C38.0321 51.9832 32.7124 52.8283 27.1629 51.4739C24.4858 50.814 24.6466 50.4667 25.336 46.8895C26.7148 39.7815 29.6906 33.2871 34.0452 27.5104C36.7108 23.9679 39.8705 20.8886 43.3863 18.1912C44.1102 17.6356 44.7995 17.6587 45.4545 18.2723C48.143 20.7844 50.0503 23.7827 50.8776 27.3946C51.2567 29.0732 51.3257 30.8212 51.475 31.9905H51.4635Z" fill="#FF2E2E"/>
<path d="M22.4062 49.4827C22.2568 49.0891 22.027 48.7071 21.9696 48.2903C20.8895 40.8118 21.1078 33.3796 23.176 26.098C24.3249 22.0693 26.1518 18.2954 28.4613 14.7877C29.8056 12.7502 31.0579 12.2872 33.7924 12.9586C36.0099 13.5027 38.2045 14.1394 40.3876 14.8108C40.7667 14.9266 41.0425 15.3897 41.3642 15.6907C41.1114 15.9569 40.9161 16.339 40.6059 16.4663C36.6994 18.1218 33.8384 21.0854 31.0579 24.1416C27.0135 28.5986 24.6926 33.9701 23.5206 39.7931C22.9691 42.5483 23.1645 45.454 23.0037 48.2903C22.9807 48.6492 22.9118 49.008 22.8658 49.3669C22.7049 49.4016 22.544 49.4479 22.3832 49.4827H22.4062Z" fill="#FF2E2E"/>
<path d="M19.3729 47.2484C15.1332 45.6161 11.3875 35.0003 12.6744 28.5638C13.9038 22.4398 20.947 14.3941 25.4624 14.4172C17.0405 24.2573 15.5123 35.255 19.3614 47.2484H19.3729Z" fill="#FF2E2E"/>
</svg>
