<svg width="48" height="48" viewBox="0 0 48 48" fill="none" xmlns="http://www.w3.org/2000/svg">
<path d="M0 24C0 10.7452 10.7452 0 24 0C37.2548 0 48 10.7452 48 24C48 37.2548 37.2548 48 24 48C10.7452 48 0 37.2548 0 24Z" fill="#FEF6EE"/>
<path fill-rule="evenodd" clip-rule="evenodd" d="M28.4109 14.7686L28.4119 15.5182C31.1665 15.7341 32.9862 17.6112 32.9891 20.4898L33 28.9155C33.0039 32.054 31.0322 33.985 27.8718 33.99L20.1519 34C17.0112 34.004 15.0148 32.027 15.0109 28.8795L15 20.5527C14.9961 17.6552 16.7515 15.7831 19.5062 15.5302L19.5052 14.7806C19.5042 14.3408 19.83 14.01 20.2644 14.01C20.6989 14.009 21.0247 14.3388 21.0257 14.7786L21.0267 15.4783L26.8914 15.4703L26.8904 14.7706C26.8894 14.3308 27.2152 14.001 27.6497 14C28.0742 13.999 28.4099 14.3288 28.4109 14.7686ZM16.5215 20.8616L31.4696 20.8416V20.4918C31.4272 18.3428 30.349 17.2154 28.4138 17.0475L28.4148 17.8171C28.4148 18.2469 28.0801 18.5877 27.6556 18.5877C27.2212 18.5887 26.8943 18.2489 26.8943 17.8191L26.8934 17.0095L21.0286 17.0175L21.0296 17.8261C21.0296 18.2569 20.7048 18.5967 20.2704 18.5967C19.8359 18.5977 19.5091 18.2589 19.5091 17.8281L19.5081 17.0585C17.5829 17.2514 16.5175 18.3828 16.5205 20.5507L16.5215 20.8616ZM27.2399 25.4043V25.4153C27.2498 25.8751 27.625 26.2239 28.0801 26.2139C28.5244 26.2029 28.8789 25.8221 28.869 25.3623C28.8483 24.9225 28.4918 24.5637 28.0485 24.5647C27.5944 24.5747 27.2389 24.9445 27.2399 25.4043ZM28.0554 29.892C27.6013 29.882 27.235 29.5032 27.234 29.0435C27.2241 28.5837 27.5884 28.2029 28.0426 28.1919H28.0525C28.5165 28.1919 28.8927 28.5707 28.8927 29.0405C28.8937 29.5102 28.5185 29.891 28.0554 29.892ZM23.1721 25.4203C23.1919 25.8801 23.568 26.2389 24.0222 26.2189C24.4665 26.1979 24.821 25.8181 24.8012 25.3583C24.7903 24.9085 24.425 24.5587 23.9807 24.5597C23.5266 24.5797 23.1711 24.9605 23.1721 25.4203ZM24.0262 29.8471C23.572 29.8671 23.1968 29.5082 23.1761 29.0485C23.1761 28.5887 23.5305 28.2089 23.9847 28.1879C24.429 28.1869 24.7953 28.5367 24.8052 28.9855C24.8259 29.4463 24.4705 29.8261 24.0262 29.8471ZM19.1043 25.4553C19.1241 25.915 19.5002 26.2749 19.9544 26.2539C20.3987 26.2339 20.7532 25.8531 20.7324 25.3933C20.7226 24.9435 20.3572 24.5937 19.912 24.5947C19.4578 24.6147 19.1033 24.9955 19.1043 25.4553ZM19.9584 29.8521C19.5042 29.8731 19.129 29.5132 19.1083 29.0535C19.1073 28.5937 19.4627 28.2129 19.9169 28.1929C20.3612 28.1919 20.7275 28.5417 20.7374 28.9915C20.7581 29.4513 20.4037 29.8321 19.9584 29.8521Z" fill="#EC6C30"/>
</svg>
