<svg width="72" height="72" viewBox="0 0 72 72" fill="none" xmlns="http://www.w3.org/2000/svg">
<path d="M0 36C0 16.1178 16.1178 0 36 0C55.8823 0 72 16.1178 72 36C72 55.8823 55.8823 72 36 72C16.1178 72 0 55.8823 0 36Z" fill="#FEF6EE"/>
<path d="M35.7851 22.9358C35.3398 22.9358 34.9899 22.5831 34.9899 22.1342V20.114C34.9899 17.9334 33.2406 16.1697 31.1095 16.1697C30.0599 16.1697 29.1057 16.5866 28.3423 17.3241C27.579 18.0617 27.1973 19.0558 27.1973 20.114V22.1342C27.1973 22.5831 26.8474 22.9358 26.4021 22.9358C25.9568 22.9358 25.6069 22.5831 25.6069 22.1342V20.114C25.6069 18.6389 26.1795 17.26 27.1973 16.2018C28.2469 15.1436 29.6146 14.5664 31.0777 14.5664C34.0993 14.5664 36.5485 17.0355 36.5485 20.0819V22.1021C36.5803 22.5831 36.2304 22.9358 35.7851 22.9358Z" fill="#F4AF7D"/>
<path d="M48.285 49.9679H25.0979L21.2493 20.0176H46.6629L48.285 49.9679Z" fill="#DC4A1A"/>
<path d="M25.0977 49.9679L19.5952 49.0059L14.0608 49.9679L15.7147 20.0176H23.4438L25.0977 49.9679Z" fill="#B73817"/>
<path d="M35.1805 30.3431C32.1588 30.3431 29.7097 27.8739 29.7097 24.8276V22.8074C29.7097 22.3584 30.0596 22.0057 30.5049 22.0057C30.9502 22.0057 31.3001 22.3584 31.3001 22.8074V24.8276C31.3001 27.0081 33.0494 28.7397 35.1805 28.7397C37.3115 28.7397 39.0927 26.976 39.0927 24.7955V22.7753C39.0927 22.3264 39.4426 21.9736 39.8879 21.9736C40.3332 21.9736 40.683 22.3264 40.683 22.7753V24.7955C40.683 27.8739 38.2339 30.3431 35.1805 30.3431Z" fill="#FAFAFA"/>
<path opacity="0.1" d="M36.6121 45.8634C36.6121 47.3385 36.9937 48.7494 37.6617 49.968H48.3169L47.649 37.6543C46.8538 37.3978 46.0268 37.2695 45.1681 37.2695C40.4289 37.2695 36.6121 41.1175 36.6121 45.8634Z" fill="#0C1E5B"/>
<path d="M47.9392 57.4346C53.4621 57.4346 57.9392 52.9574 57.9392 47.4346C57.9392 41.9117 53.4621 37.4346 47.9392 37.4346C42.4164 37.4346 37.9392 41.9117 37.9392 47.4346C37.9392 52.9574 42.4164 57.4346 47.9392 57.4346Z" fill="#FF2735"/>
<path d="M52.7186 50.6979H53.7394V51.7188H42.5103V50.6979H43.5311V43.0417C43.5311 42.9063 43.5849 42.7765 43.6806 42.6807C43.7763 42.585 43.9061 42.5312 44.0415 42.5312H49.1457C49.281 42.5312 49.4109 42.585 49.5066 42.6807C49.6023 42.7765 49.6561 42.9063 49.6561 43.0417V50.6979H50.6769V45.5938H52.2082C52.3435 45.5938 52.4734 45.6475 52.5691 45.7432C52.6648 45.839 52.7186 45.9688 52.7186 46.1042V50.6979ZM45.5728 46.6146V47.6354H47.6144V46.6146H45.5728ZM45.5728 44.5729V45.5938H47.6144V44.5729H45.5728Z" fill="#FAFAFA"/>
</svg>
