<svg width="48" height="48" viewBox="0 0 48 48" fill="none" xmlns="http://www.w3.org/2000/svg">
<path d="M0 24C0 10.7452 10.7452 0 24 0C37.2548 0 48 10.7452 48 24C48 37.2548 37.2548 48 24 48C10.7452 48 0 37.2548 0 24Z" fill="#EAFEE7"/>
<path fill-rule="evenodd" clip-rule="evenodd" d="M19.3304 14.0004H28.6694C32.0704 14.0004 33.9904 15.9294 34.0004 19.3304V28.6704C34.0004 32.0704 32.0704 34.0004 28.6694 34.0004H19.3304C15.9294 34.0004 14.0004 32.0704 14.0004 28.6704V19.3304C14.0004 15.9294 15.9294 14.0004 19.3304 14.0004ZM24.0494 29.8604C24.4804 29.8604 24.8394 29.5404 24.8794 29.1104V18.9204C24.9194 18.6104 24.7704 18.2994 24.5004 18.1304C24.2194 17.9604 23.8794 17.9604 23.6104 18.1304C23.3394 18.2994 23.1904 18.6104 23.2194 18.9204V29.1104C23.2704 29.5404 23.6294 29.8604 24.0494 29.8604ZM28.6504 29.8604C29.0704 29.8604 29.4294 29.5404 29.4804 29.1104V25.8304C29.5094 25.5094 29.3604 25.2104 29.0894 25.0404C28.8204 24.8704 28.4804 24.8704 28.2004 25.0404C27.9294 25.2104 27.7804 25.5094 27.8204 25.8304V29.1104C27.8604 29.5404 28.2194 29.8604 28.6504 29.8604ZM20.2194 29.1104C20.1794 29.5404 19.8204 29.8604 19.3894 29.8604C18.9594 29.8604 18.5994 29.5404 18.5604 29.1104V22.2004C18.5304 21.8894 18.6794 21.5804 18.9504 21.4104C19.2194 21.2404 19.5604 21.2404 19.8304 21.4104C20.0994 21.5804 20.2504 21.8894 20.2194 22.2004V29.1104Z" fill="#1AD012"/>
</svg>
