<svg width="24" height="24" viewBox="0 0 24 24" fill="none" xmlns="http://www.w3.org/2000/svg">
<path d="M13.544 10.4566C12.7246 9.63832 11.614 9.17871 10.456 9.17871C9.29801 9.17871 8.18737 9.63832 7.368 10.4566L4.279 13.5446C3.45988 14.3637 2.9997 15.4747 2.9997 16.6331C2.9997 17.7915 3.45988 18.9025 4.279 19.7216C5.09812 20.5407 6.20909 21.0009 7.3675 21.0009C8.52591 21.0009 9.63688 20.5407 10.456 19.7216L12 18.1776" stroke="#D6D6D6" stroke-width="2" stroke-linecap="round" stroke-linejoin="round"/>
<path d="M10.456 13.5443C11.2754 14.3626 12.386 14.8222 13.544 14.8222C14.702 14.8222 15.8126 14.3626 16.632 13.5443L19.721 10.4563C20.5401 9.63718 21.0003 8.52621 21.0003 7.3678C21.0003 6.20939 20.5401 5.09842 19.721 4.2793C18.9019 3.46018 17.7909 3 16.6325 3C15.4741 3 14.3631 3.46018 13.544 4.2793L12 5.8233" stroke="#D6D6D6" stroke-width="2" stroke-linecap="round" stroke-linejoin="round"/>
</svg>
