<svg width="24" height="24" viewBox="0 0 24 24" fill="none" xmlns="http://www.w3.org/2000/svg">
<path d="M9.06662 11.5996H10.5333V13.0663H9.06662V11.5996ZM11.9999 13.0663V14.5329H10.5333V13.0663H11.9999ZM13.4666 13.0663H11.9999V11.5996H13.4666V13.0663ZM14.9333 13.0663V14.5329H13.4666V13.0663H14.9333ZM14.9333 13.0663V11.5996H16.3999V13.0663H14.9333Z" fill="#FF2735"/>
<path d="M12.7333 5.00016C13.0883 5.00016 13.4667 5 13.4667 5H17.7361C18.3301 5 18.886 5.31533 19.1779 5.836L21.2517 9.44767C22.2579 9.6618 22.9905 10.5682 23 11.6183V15.9743C23 17.1975 22.0225 18.2 20.8015 18.2H19.8195C19.6115 18.6391 19.2831 19.0102 18.8725 19.27C18.4619 19.5298 17.9859 19.6678 17.5 19.6678C17.0141 19.6678 16.5381 19.5298 16.1275 19.27C15.7169 19.0102 15.3885 18.6391 15.1805 18.2H8.81953C8.6115 18.6391 8.28308 19.0102 7.87246 19.27C7.46185 19.5298 6.98592 19.6678 6.5 19.6678C6.01408 19.6678 5.53815 19.5298 5.12754 19.27C4.71692 19.0102 4.38851 18.6391 4.18047 18.2H3.1978C1.96653 18.2 1 17.1851 1 15.9743V13.0667C1 12.0033 1.78467 10.6357 3.453 10.1458L5.6046 9.51953L7.19373 5.97533C7.32609 5.6844 7.53941 5.43771 7.8082 5.26476C8.077 5.09181 8.3899 4.99989 8.70953 5H12C12 5 12.3784 5.00016 12.7333 5.00016ZM2.46667 13.0667H3.4332C3.70673 13.0667 3.93333 13.3453 3.93333 13.6797V14.6536C3.93333 14.9887 3.71333 15.2667 3.4332 15.2667H2.46667V15.9743C2.46667 16.4055 2.80547 16.7333 3.19853 16.7333H3.959C4.04618 16.1215 4.35118 15.5617 4.81797 15.1567C5.28476 14.7517 5.88201 14.5287 6.5 14.5287C7.11799 14.5287 7.71524 14.7517 8.18203 15.1567C8.64882 15.5617 8.95382 16.1215 9.041 16.7333H14.959C15.0473 16.1224 15.3528 15.5637 15.8194 15.1596C16.2861 14.7556 16.8827 14.5332 17.5 14.5332C18.1173 14.5332 18.7139 14.7556 19.1806 15.1596C19.6472 15.5637 19.9527 16.1224 20.041 16.7333H20.8015C21.1923 16.7333 21.5333 16.4077 21.5333 15.9743V15.2667H21.1557C21.0119 15.2662 20.8696 15.2373 20.7369 15.1817C20.6043 15.1262 20.484 15.0449 20.3828 14.9427C20.2816 14.8406 20.2016 14.7194 20.1474 14.5862C20.0931 14.453 20.0657 14.3105 20.0667 14.1667C20.0667 13.5631 20.5499 13.0667 21.1557 13.0667H21.5333V11.6293C21.5282 11.1937 21.1857 10.8667 20.7941 10.8667H14.0871C13.7424 10.8667 13.4667 10.566 13.4667 10.192V7.87467C13.4667 7.50067 13.7424 7.2 14.0871 7.2H18.27L17.9033 6.562L17.8982 6.5532C17.8812 6.52579 17.8572 6.50336 17.8288 6.48817C17.8003 6.47297 17.7684 6.46556 17.7361 6.46667H8.7088C8.67078 6.46662 8.63355 6.47752 8.60156 6.49807C8.56957 6.51862 8.54417 6.54794 8.5284 6.58253L8.24973 7.20367L11.3627 7.20807C11.7169 7.20807 12 7.50873 12 7.88273V10.192C12 10.566 11.7169 10.8667 11.3627 10.8667H6.22573L3.8666 11.5531C2.81353 11.864 2.46667 12.6641 2.46667 13.0667ZM6.5 18.2C6.79174 18.2 7.07153 18.0841 7.27782 17.8778C7.48411 17.6715 7.6 17.3917 7.6 17.1C7.6 16.8083 7.48411 16.5285 7.27782 16.3222C7.07153 16.1159 6.79174 16 6.5 16C6.20826 16 5.92847 16.1159 5.72218 16.3222C5.51589 16.5285 5.4 16.8083 5.4 17.1C5.4 17.3917 5.51589 17.6715 5.72218 17.8778C5.92847 18.0841 6.20826 18.2 6.5 18.2ZM17.5 18.2C17.7917 18.2 18.0715 18.0841 18.2778 17.8778C18.4841 17.6715 18.6 17.3917 18.6 17.1C18.6 16.8083 18.4841 16.5285 18.2778 16.3222C18.0715 16.1159 17.7917 16 17.5 16C17.2083 16 16.9285 16.1159 16.7222 16.3222C16.5159 16.5285 16.4 16.8083 16.4 17.1C16.4 17.3917 16.5159 17.6715 16.7222 17.8778C16.9285 18.0841 17.2083 18.2 17.5 18.2Z" fill="#FF2735"/>
</svg>
