<svg width="28" height="29" viewBox="0 0 28 29" fill="none" xmlns="http://www.w3.org/2000/svg">
<path d="M0 14.0762C0 6.34419 6.26801 0.0761719 14 0.0761719C21.732 0.0761719 28 6.34419 28 14.0762C28 21.8082 21.732 28.0762 14 28.0762C6.26801 28.0762 0 21.8082 0 14.0762Z" fill="#0F0F0F"/>
<path d="M5.66699 20.7428H22.3337M9.83366 12.4095H13.167M15.667 20.7428H20.667V14.0762C20.667 13.2996 20.6669 12.9113 20.54 12.605C20.3709 12.1966 20.0465 11.8722 19.6381 11.703C19.3318 11.5762 18.9438 11.5762 18.1672 11.5762C17.3906 11.5762 17.0023 11.5762 16.696 11.703C16.2877 11.8722 15.963 12.1966 15.7939 12.605C15.667 12.9113 15.667 13.2996 15.667 14.0762V20.7428ZM15.667 20.7428V9.2428C15.667 8.30938 15.6672 7.84273 15.4855 7.48621C15.3257 7.1726 15.0704 6.91762 14.7568 6.75783C14.4003 6.57617 13.9339 6.57617 13.0005 6.57617H10.0005C9.06707 6.57617 8.60001 6.57617 8.24349 6.75783C7.92989 6.91762 7.6751 7.1726 7.51531 7.48621C7.33366 7.84273 7.33366 8.30938 7.33366 9.2428V20.7428H15.667ZM9.83366 9.90951L13.167 9.90951" stroke="#FAFAFA" stroke-width="2" stroke-linecap="round" stroke-linejoin="round"/>
</svg>
